# xmcd
#
# Track frame offsets:
#	150
#	12108
#	29328
#	47792
#	64343
#	76989
#	95457
#	111098
#	124591
#	139081
#	155942
#	172625
#	185295
#
# Disc length: 2661 seconds
#
# Revision: 0
# Processed by: cddbd v1.5.1PL2 Copyright (c) Steve Scherf et al.
# Submitted via: dBpowerAMP V4.0
#
DISCID=a30a630d
DTITLE=Various Artist - No Depression: What It Sounds Like, Vol. 2
DYEAR=2006
DGENRE=Americana
TTITLE0=Jay Farrar - Station To Station
TTITLE1=Patty Loveless - Sounds Of Loneliness
TTITLE2=Resentments - World So Full
TTITLE3=Kieran Kane - Will You Miss Me
TTITLE4=Paul Burch and The WPA Ballclub - I Am Here
TTITLE5=Drive-By Truckers - Outfit
TTITLE6=Shaver - Blood Is Thicker Than Water
TTITLE7=Caitlin Cary With Ryan Adams - The Battle
TTITLE8=Hazel Dickens and Alice Gerrard - The One I Love Is Gone
TTITLE9=Julie Miller - I Can't Cry Hard Enough
TTITLE10=Rosanne Cash - September When It Comes
TTITLE11=June Carter Cash and Johnny Cash - Far Side Banks Of Jordan
TTITLE12=Flatlanders - Hello Stranger
EXTD=
EXTT0=
EXTT1=
EXTT2=
EXTT3=
EXTT4=
EXTT5=
EXTT6=
EXTT7=
EXTT8=
EXTT9=
EXTT10=
EXTT11=
EXTT12=
PLAYORDER=
